<?xml version="1.0" encoding="utf-8"?>
<svg width="512" height="512" viewBox="0 0 200 200" class="" role="img" aria-label="" fill="none" stroke="#B06A00" stroke-width="5" stroke-linejoin="round" stroke-linecap="round" style="color:#B06A00" xmlns="http://www.w3.org/2000/svg"><polygon points="162.4,136.0 100.0,172.0 37.6,136.0 37.6,64.0 100.0,28.0 162.4,64.0"/><polygon points="113.0,122.5 87.0,122.5 74.0,100.0 87.0,77.5 113.0,77.5 126.0,100.0"/><line x1="162.4" y1="136.0" x2="113.0" y2="122.5"/><line x1="100.0" y1="172.0" x2="87.0" y2="122.5"/><line x1="37.6" y1="136.0" x2="74.0" y2="100.0"/><line x1="37.6" y1="64.0" x2="87.0" y2="77.5"/><line x1="100.0" y1="28.0" x2="113.0" y2="77.5"/><line x1="162.4" y1="64.0" x2="126.0" y2="100.0"/><path d="M91,97V91H97 M103,91H109V97 M109,103V109H103 M97,109H91V103" stroke-width="3" stroke-linejoin="miter" stroke-linecap="butt"/></svg>
